<svg xmlns="http://www.w3.org/2000/svg" width="190" height="137" viewBox="0 0 190 137">
  <metadata><?xpacket begin="﻿" id="W5M0MpCehiHzreSzNTczkc9d"?>
<x:xmpmeta xmlns:x="adobe:ns:meta/" x:xmptk="Adobe XMP Core 5.6-c145 79.163499, 2018/08/13-16:40:22        ">
   <rdf:RDF xmlns:rdf="http://www.w3.org/1999/02/22-rdf-syntax-ns#">
      <rdf:Description rdf:about=""
            xmlns:xmp="http://ns.adobe.com/xap/1.0/">
         <xmp:CreatorTool>Adobe Photoshop CC 2019 (Windows)</xmp:CreatorTool>
      </rdf:Description>
   </rdf:RDF>
</x:xmpmeta>
                                                                                                    
                                                                                                    
                                                                                                    
                                                                                                    
                                                                                                    
                                                                                                    
                                                                                                    
                                                                                                    
                                                                                                    
                                                                                                    
                                                                                                    
                                                                                                    
                                                                                                    
                                                                                                    
                                                                                                    
                                                                                                    
                                                                                                    
                                                                                                    
                                                                                                    
                                                                                                    
                           
<?xpacket end="w"?></metadata>
<defs>
    <style>
      .cls-1 {
        fill-rule: evenodd;
      }
    </style>
  </defs>
  <path id="Forme_1_copie" data-name="Forme 1 copie" class="cls-1" d="M21,1C36.819-1.3,48.773,3.843,50,18c9.946-5.688,47.921-24.819,90,1,2.81-20.429,32.38-25.494,45-8,11.383,15.78,2.118,37.546-16,34C199.2,170.111-8.36,163.72,22,47,1.752,42.657,1,32.029.96,22.09,0.915,11.8,9.36,3.5,21,1Zm2,6C10.9,8.188,7.608,16.965,7,22c1.915,16.127,6.483,17.528,23,19-44.948,116.559,172.668,123.2,131-1l2-1c12.251,3.091,19.31-5.568,20-10,2.544-32.822-40.848-26.085-38-3,0.138,1.118-2.6,1.79-4,1C122.24,6.2,68.966,7.7,50,27c-2.053.544-3.812-.17-4-1C43.8,11.754,40.651,5.405,23,7Zm0,8c1.247-1.19,6.925-2.578,13,3,4.882,3.935,5.638,10.862,4,14-0.667.333-2.333-1.333-3-1C34.951,19.153,23.815,17.853,22,21c-3.047,7.692,4.5,11.447,15,11-0.333,1.333.333,2.667,0,4-1,.333-3,0.667-4,1-11.5-.643-13.556-1.524-17-11,0.333-1.333-.458-2.682,0-4C17.689,17.588,19.871,16.139,23,15Zm137,0c1.3-.824,7.187-0.9,8-1,0.71-.088,6.828,5.46,7,6,0.748,2.345.432,7.171,0,8-0.54,1.036-1.739,5.084-6,7-13.716,6.787-15.382.061-15-1,1.454-4.037,12.518,1.826,16-7,0.764-9.873-7.016-7.7-10-7-2.434,1.209-4.7,6.614-5,8-1,4.687-2.17,3.11-4,3-1.333-3.666-.76-4.034,0-6C151.252,21.8,154.711,16.894,160,15ZM53,53c5.407-.575,11.236,2.707,15,7,1,2,2.718,5.833,1,6H67c-9.572-12.859-23.123-3.879-26,2-0.47-.036-3.3.483-3-2C39.455,59.519,46.676,53.253,53,53Zm83,0c12.15,1.12,16.173,6.707,18,13-0.132,2.29-1.8,2.508-3,2-9.526-12.3-20.366-10.928-27-2-1.273-.213-2.7-3.492,0-6C128.081,55.923,130.547,54.033,136,53ZM79,69c8.339-2.07,28.244-1.282,35,0,9.333,2.64,20.4,12.993,22,24,0.088,5.4.962,12.543-4,18-16.419,18.057-49.7,15.055-68,5-5.614-3.084-10.2-13.248-9.883-20.761C54.472,86.85,61.174,73.265,79,69Zm0,5c-4.262,1.193-14.494,7.057-18,15-0.5,1.13-5.586,17.112,7.982,24.212C70.3,113.9,79.563,119.367,96,119c21-.854,18.868-1.771,29-7,4.183-2.213,8.484-14.475,6-21-0.1-.253-8.134-16.943-18.791-17.84C89.947,71.111,84.49,72.686,79,74Zm2,4c3.51-6.487,11.111-4.681,15-1,3.71-3.076,10.631-5.561,14,1,5.66,9.358-13.475,17.227-11,22,0.855,1.98,2,2,3,3,2.139,0.625,12.875,1.133,15-1,3.895-5.295-.667-6.667,0-10,0.656-.856,1.721-3.966,5,0,2.045,1.034,3.921,9.606-2,14-1.258,1.869-3.856,2.934-9,3-7.622.1-12.151-1.852-14-5-0.259-.441-1.607.289-2,0-1.669,3.708-9.672,5.218-14,5-4.055-.2-7.39-0.374-10.286-2.637C65.437,104.274,65.626,97.671,67,94c0.218-.318,3.721-7.6,8-2-0.152,3.5-5.775,5.529-.023,10,1.559,1.443,6.3,1.682,15.023,1,3.538-2.174,2.677-3.249,3-5C85.162,89.581,79.047,88.818,81,78Zm5,1c-1.364.97-.189,5.916,2,9,2.761,3.7,5.154,4.09,8,5,3.412-.985,4.687-1.816,7-5,3.125-3.269,4.281-7.139,2-9-5.713-2.493-5.524,4.678-9,5C92.8,83.906,91.175,75.858,86,79Zm5,31a11.517,11.517,0,0,1,10,0,3.663,3.663,0,0,1-2,5c-1.487.756-3.99,1.02-7,0C89.98,112.831,90.144,111.661,91,110Z"/>
</svg>
